<svg xmlns="http://www.w3.org/2000/svg" xmlns:xlink="http://www.w3.org/1999/xlink" width="1890" zoomAndPan="magnify" viewBox="0 0 1417.5 1417.500002" height="1890" preserveAspectRatio="xMidYMid meet" version="1.2"><defs><clipPath id="e311937fc8"><path d="M 535.019531 342.15625 L 592.992188 342.15625 L 592.992188 1066.425781 L 535.019531 1066.425781 Z M 535.019531 342.15625 "/></clipPath></defs><g id="ce75c67384"><g style="fill:#38b6ff;fill-opacity:1;"><g transform="translate(0.000000000000426175, 1053.698301)"><path style="stroke:none" d="M 35.296875 -296.515625 L 85.078125 -296.515625 C 93.304688 -296.515625 99.128906 -294.984375 102.546875 -291.921875 C 105.960938 -288.867188 108.019531 -285.398438 108.71875 -281.515625 C 109.425781 -277.628906 109.78125 -274.628906 109.78125 -272.515625 L 111.546875 -272.515625 C 111.546875 -274.628906 111.898438 -277.628906 112.609375 -281.515625 C 113.316406 -285.398438 115.375 -288.867188 118.78125 -291.921875 C 122.195312 -294.984375 128.023438 -296.515625 136.265625 -296.515625 L 187.796875 -296.515625 C 189.910156 -296.515625 192.96875 -296.160156 196.96875 -295.453125 C 200.96875 -294.753906 204.613281 -292.695312 207.90625 -289.28125 C 211.207031 -285.875 212.859375 -280.050781 212.859375 -271.8125 L 212.859375 -7.0625 C 212.859375 -5.175781 212.148438 -3.523438 210.734375 -2.109375 C 209.328125 -0.703125 207.679688 0 205.796875 0 L 164.140625 0 C 162.265625 0 160.617188 -0.703125 159.203125 -2.109375 C 157.785156 -3.523438 157.078125 -5.175781 157.078125 -7.0625 L 157.078125 -250.984375 L 139.78125 -250.984375 L 139.78125 -7.0625 C 139.78125 -5.175781 139.070312 -3.523438 137.65625 -2.109375 C 136.25 -0.703125 134.609375 0 132.734375 0 L 90.71875 0 C 88.832031 0 87.179688 -0.703125 85.765625 -2.109375 C 84.359375 -3.523438 83.65625 -5.175781 83.65625 -7.0625 L 83.65625 -250.984375 L 66.71875 -250.984375 L 66.71875 -7.0625 C 66.71875 -5.175781 66.007812 -3.523438 64.59375 -2.109375 C 63.1875 -0.703125 61.539062 0 59.65625 0 L 17.65625 0 C 15.769531 0 14.117188 -0.703125 12.703125 -2.109375 C 11.296875 -3.523438 10.59375 -5.175781 10.59375 -7.0625 L 10.59375 -271.8125 C 10.59375 -280.050781 12.238281 -285.875 15.53125 -289.28125 C 18.820312 -292.695312 22.410156 -294.753906 26.296875 -295.453125 C 30.179688 -296.160156 33.179688 -296.515625 35.296875 -296.515625 Z M 35.296875 -296.515625 "/></g></g><g style="fill:#38b6ff;fill-opacity:1;"><g transform="translate(223.397351, 1053.698301)"><path style="stroke:none" d="M 10.59375 -24.703125 L 10.59375 -289.453125 C 10.59375 -291.335938 11.296875 -292.984375 12.703125 -294.390625 C 14.117188 -295.804688 15.769531 -296.515625 17.65625 -296.515625 L 59.65625 -296.515625 C 61.539062 -296.515625 63.1875 -295.804688 64.59375 -294.390625 C 66.007812 -292.984375 66.71875 -291.335938 66.71875 -289.453125 L 66.71875 -45.53125 L 83.65625 -45.53125 L 83.65625 -288.75 C 83.65625 -290.632812 84.359375 -292.28125 85.765625 -293.6875 C 87.179688 -295.101562 88.832031 -295.8125 90.71875 -295.8125 L 132.734375 -295.8125 C 134.609375 -295.8125 136.25 -295.101562 137.65625 -293.6875 C 139.070312 -292.28125 139.898438 -290.632812 140.140625 -288.75 L 140.140625 -7.0625 C 140.140625 -5.175781 139.429688 -3.523438 138.015625 -2.109375 C 136.609375 -0.703125 134.960938 0 133.078125 0 L 35.296875 0 C 33.179688 0 30.179688 -0.351562 26.296875 -1.0625 C 22.410156 -1.769531 18.820312 -3.828125 15.53125 -7.234375 C 12.238281 -10.648438 10.59375 -16.472656 10.59375 -24.703125 Z M 10.59375 -24.703125 "/></g></g><g style="fill:#38b6ff;fill-opacity:1;"><g transform="translate(374.0935, 1053.698301)"><path style="stroke:none" d="M 139.4375 -174.734375 C 139.4375 -166.492188 137.90625 -160.664062 134.84375 -157.25 C 131.78125 -153.84375 128.304688 -151.785156 124.421875 -151.078125 C 120.546875 -150.378906 117.550781 -150.03125 115.4375 -150.03125 L 115.4375 -148.265625 C 117.550781 -148.265625 120.546875 -147.910156 124.421875 -147.203125 C 128.304688 -146.492188 131.78125 -144.429688 134.84375 -141.015625 C 137.90625 -137.609375 139.4375 -131.785156 139.4375 -123.546875 L 139.4375 -6.703125 C 139.4375 -5.054688 138.785156 -3.523438 137.484375 -2.109375 C 136.191406 -0.703125 134.488281 0 132.375 0 L 90.71875 0 C 88.832031 0 87.179688 -0.703125 85.765625 -2.109375 C 84.359375 -3.523438 83.65625 -5.175781 83.65625 -7.0625 L 83.65625 -126.015625 L 66.359375 -126.015625 L 66.359375 -7.0625 C 66.359375 -5.175781 65.648438 -3.523438 64.234375 -2.109375 C 62.828125 -0.703125 61.179688 0 59.296875 0 L 17.65625 0 C 15.769531 0 14.117188 -0.703125 12.703125 -2.109375 C 11.296875 -3.523438 10.59375 -5.175781 10.59375 -7.0625 L 10.59375 -289.453125 C 10.59375 -291.335938 11.296875 -292.984375 12.703125 -294.390625 C 14.117188 -295.804688 15.769531 -296.515625 17.65625 -296.515625 L 59.296875 -296.515625 C 61.179688 -296.515625 62.828125 -295.804688 64.234375 -294.390625 C 65.648438 -292.984375 66.359375 -291.335938 66.359375 -289.453125 L 66.359375 -171.5625 L 83.65625 -171.5625 L 83.65625 -289.109375 C 83.65625 -290.992188 84.359375 -292.640625 85.765625 -294.046875 C 87.179688 -295.460938 88.832031 -296.285156 90.71875 -296.515625 L 132.375 -296.515625 C 134.257812 -296.515625 135.90625 -295.804688 137.3125 -294.390625 C 138.726562 -292.984375 139.4375 -291.335938 139.4375 -289.453125 Z M 139.4375 -174.734375 "/></g></g><g style="fill:#38b6ff;fill-opacity:1;"><g transform="translate(524.0838, 1053.698301)"><path style="stroke:none" d="M 17.65625 -56.484375 L 59.65625 -56.484375 C 61.539062 -56.484375 63.1875 -55.773438 64.59375 -54.359375 C 66.007812 -52.953125 66.71875 -51.304688 66.71875 -49.421875 L 66.71875 -7.0625 C 66.71875 -5.175781 66.007812 -3.523438 64.59375 -2.109375 C 63.1875 -0.703125 61.539062 0 59.65625 0 L 17.65625 0 C 15.769531 0 14.117188 -0.703125 12.703125 -2.109375 C 11.296875 -3.523438 10.59375 -5.175781 10.59375 -7.0625 L 10.59375 -49.421875 C 10.59375 -51.304688 11.296875 -52.953125 12.703125 -54.359375 C 14.117188 -55.773438 15.769531 -56.484375 17.65625 -56.484375 Z M 17.65625 -56.484375 "/></g></g><g style="fill:#38b6ff;fill-opacity:1;"><g transform="translate(601.372898, 1053.698301)"><path style="stroke:none" d="M 17.65625 -296.515625 L 59.65625 -296.515625 C 61.539062 -296.515625 63.1875 -295.804688 64.59375 -294.390625 C 66.007812 -292.984375 66.71875 -291.335938 66.71875 -289.453125 L 66.71875 -7.0625 C 66.71875 -5.175781 66.007812 -3.523438 64.59375 -2.109375 C 63.1875 -0.703125 61.539062 0 59.65625 0 L 17.65625 0 C 15.769531 0 14.117188 -0.703125 12.703125 -2.109375 C 11.296875 -3.523438 10.59375 -5.175781 10.59375 -7.0625 L 10.59375 -289.453125 C 10.59375 -291.335938 11.296875 -292.984375 12.703125 -294.390625 C 14.117188 -295.804688 15.769531 -296.515625 17.65625 -296.515625 Z M 17.65625 -296.515625 "/></g></g><g style="fill:#38b6ff;fill-opacity:1;"><g transform="translate(678.661995, 1053.698301)"><path style="stroke:none" d=""/></g></g><g style="fill:#38b6ff;fill-opacity:1;"><g transform="translate(766.891557, 1053.698301)"><path style="stroke:none" d="M 10.59375 -296.515625 L 52.59375 -296.515625 C 56.832031 -296.515625 59.1875 -294.398438 59.65625 -290.171875 L 72.015625 -82.609375 L 74.84375 -82.609375 L 87.1875 -290.171875 C 87.65625 -294.398438 90.007812 -296.515625 94.25 -296.515625 L 136.265625 -296.515625 C 138.140625 -296.515625 139.78125 -295.804688 141.1875 -294.390625 C 142.601562 -292.984375 143.3125 -291.101562 143.3125 -288.75 L 111.90625 -6.359375 C 111.425781 -2.117188 109.070312 0 104.84375 0 L 42 0 C 37.769531 0 35.421875 -2.117188 34.953125 -6.359375 L 3.53125 -289.453125 C 3.53125 -291.335938 4.234375 -292.984375 5.640625 -294.390625 C 7.054688 -295.804688 8.707031 -296.515625 10.59375 -296.515625 Z M 10.59375 -296.515625 "/></g></g><g style="fill:#38b6ff;fill-opacity:1;"><g transform="translate(913.705658, 1053.698301)"><path style="stroke:none" d="M 10.59375 -7.0625 L 10.59375 -289.453125 C 10.59375 -291.335938 11.296875 -292.984375 12.703125 -294.390625 C 14.117188 -295.804688 15.769531 -296.515625 17.65625 -296.515625 L 120.71875 -296.515625 C 122.601562 -296.515625 124.191406 -295.867188 125.484375 -294.578125 C 126.785156 -293.285156 127.4375 -291.578125 127.4375 -289.453125 L 127.4375 -258.046875 C 127.4375 -256.160156 126.726562 -254.507812 125.3125 -253.09375 C 123.90625 -251.6875 122.257812 -250.984375 120.375 -250.984375 L 66.71875 -250.984375 L 66.71875 -177.90625 L 103.078125 -177.90625 C 104.960938 -177.90625 106.609375 -177.195312 108.015625 -175.78125 C 109.429688 -174.375 110.140625 -172.734375 110.140625 -170.859375 L 110.140625 -136.265625 C 110.140625 -134.378906 109.429688 -132.726562 108.015625 -131.3125 C 106.609375 -129.90625 104.960938 -129.203125 103.078125 -129.203125 L 66.71875 -129.203125 L 66.71875 -45.53125 L 120.375 -45.53125 C 122.257812 -45.53125 123.90625 -44.820312 125.3125 -43.40625 C 126.726562 -42 127.550781 -40.359375 127.78125 -38.484375 L 127.78125 -7.0625 C 127.78125 -5.175781 127.070312 -3.523438 125.65625 -2.109375 C 124.25 -0.703125 122.601562 0 120.71875 0 L 17.65625 0 C 15.769531 0 14.117188 -0.703125 12.703125 -2.109375 C 11.296875 -3.523438 10.59375 -5.175781 10.59375 -7.0625 Z M 10.59375 -7.0625 "/></g></g><g style="fill:#38b6ff;fill-opacity:1;"><g transform="translate(1052.049645, 1053.698301)"><path style="stroke:none" d="M 140.5 -271.8125 L 140.5 -172.609375 C 140.5 -164.378906 138.910156 -158.554688 135.734375 -155.140625 C 132.554688 -151.734375 128.96875 -149.675781 124.96875 -148.96875 C 120.96875 -148.257812 117.90625 -147.90625 115.78125 -147.90625 L 115.78125 -146.140625 C 117.90625 -146.140625 120.90625 -145.785156 124.78125 -145.078125 C 128.664062 -144.378906 132.132812 -142.320312 135.1875 -138.90625 C 138.25 -135.488281 139.78125 -129.664062 139.78125 -121.4375 L 139.78125 -7.0625 C 139.78125 -5.175781 139.070312 -3.523438 137.65625 -2.109375 C 136.25 -0.703125 134.609375 0 132.734375 0 L 90.71875 0 C 88.832031 0 87.179688 -0.703125 85.765625 -2.109375 C 84.359375 -3.523438 83.65625 -5.175781 83.65625 -7.0625 L 83.65625 -125.671875 L 66.71875 -125.671875 L 66.71875 -7.0625 C 66.71875 -5.175781 66.007812 -3.523438 64.59375 -2.109375 C 63.1875 -0.703125 61.539062 0 59.65625 0 L 17.65625 0 C 15.769531 0 14.117188 -0.703125 12.703125 -2.109375 C 11.296875 -3.523438 10.59375 -5.175781 10.59375 -7.0625 L 10.59375 -289.453125 C 10.59375 -291.335938 11.296875 -292.984375 12.703125 -294.390625 C 14.117188 -295.804688 15.769531 -296.515625 17.65625 -296.515625 L 116.140625 -296.515625 C 118.253906 -296.515625 121.253906 -296.160156 125.140625 -295.453125 C 129.023438 -294.753906 132.554688 -292.695312 135.734375 -289.28125 C 138.910156 -285.875 140.5 -280.050781 140.5 -271.8125 Z M 66.71875 -250.984375 L 66.71875 -170.859375 L 83.65625 -170.859375 L 83.65625 -250.984375 Z M 66.71875 -250.984375 "/></g></g><g style="fill:#38b6ff;fill-opacity:1;"><g transform="translate(1203.098763, 1053.698301)"><path style="stroke:none" d="M 17.65625 -56.484375 L 59.65625 -56.484375 C 61.539062 -56.484375 63.1875 -55.773438 64.59375 -54.359375 C 66.007812 -52.953125 66.71875 -51.304688 66.71875 -49.421875 L 66.71875 -7.0625 C 66.71875 -5.175781 66.007812 -3.523438 64.59375 -2.109375 C 63.1875 -0.703125 61.539062 0 59.65625 0 L 17.65625 0 C 15.769531 0 14.117188 -0.703125 12.703125 -2.109375 C 11.296875 -3.523438 10.59375 -5.175781 10.59375 -7.0625 L 10.59375 -49.421875 C 10.59375 -51.304688 11.296875 -52.953125 12.703125 -54.359375 C 14.117188 -55.773438 15.769531 -56.484375 17.65625 -56.484375 Z M 17.65625 -56.484375 "/></g></g><g style="fill:#38b6ff;fill-opacity:1;"><g transform="translate(1280.387861, 1053.698301)"><path style="stroke:none" d="M 118.609375 0 L 35.296875 0 C 33.179688 0 30.179688 -0.351562 26.296875 -1.0625 C 22.410156 -1.769531 18.878906 -3.882812 15.703125 -7.40625 C 12.523438 -10.9375 10.9375 -16.703125 10.9375 -24.703125 L 10.9375 -146.140625 C 10.9375 -154.378906 12.523438 -160.203125 15.703125 -163.609375 C 18.878906 -167.023438 22.347656 -169.085938 26.109375 -169.796875 C 29.878906 -170.503906 32.828125 -170.859375 34.953125 -170.859375 L 73.078125 -170.859375 L 73.078125 -250.984375 L 17.65625 -250.984375 C 15.769531 -250.984375 14.117188 -251.6875 12.703125 -253.09375 C 11.296875 -254.507812 10.59375 -256.160156 10.59375 -258.046875 L 10.59375 -289.453125 C 10.59375 -291.335938 11.296875 -292.984375 12.703125 -294.390625 C 14.117188 -295.804688 15.769531 -296.515625 17.65625 -296.515625 L 104.84375 -296.515625 C 106.957031 -296.515625 109.957031 -296.160156 113.84375 -295.453125 C 117.726562 -294.753906 121.257812 -292.695312 124.4375 -289.28125 C 127.613281 -285.875 129.203125 -280.164062 129.203125 -272.15625 L 129.203125 -153.203125 C 129.203125 -145.203125 127.613281 -139.4375 124.4375 -135.90625 C 121.257812 -132.375 117.726562 -130.253906 113.84375 -129.546875 C 109.957031 -128.835938 106.957031 -128.484375 104.84375 -128.484375 L 66.71875 -128.484375 L 66.71875 -49.765625 L 118.609375 -49.765625 C 120.492188 -49.765625 122.140625 -49.054688 123.546875 -47.640625 C 124.960938 -46.234375 125.671875 -44.59375 125.671875 -42.71875 L 125.671875 -7.0625 C 125.671875 -5.175781 124.960938 -3.523438 123.546875 -2.109375 C 122.140625 -0.703125 120.492188 0 118.609375 0 Z M 118.609375 0 "/></g></g><g style="fill:#ffde59;fill-opacity:1;"><g transform="translate(78.563474, 670.858105)"><path style="stroke:none" d="M 134.15625 -271.828125 L 134.15625 -98.84375 C 134.15625 -90.613281 132.566406 -84.789062 129.390625 -81.375 C 126.210938 -77.957031 122.617188 -75.894531 118.609375 -75.1875 C 114.609375 -74.488281 111.550781 -74.140625 109.4375 -74.140625 L 66.71875 -74.140625 L 66.71875 -7.0625 C 66.71875 -5.175781 66.007812 -3.523438 64.59375 -2.109375 C 63.1875 -0.703125 61.539062 0 59.65625 0 L 17.65625 0 C 15.769531 0 14.117188 -0.703125 12.703125 -2.109375 C 11.296875 -3.523438 10.59375 -5.175781 10.59375 -7.0625 L 10.59375 -289.484375 C 10.59375 -291.367188 11.296875 -293.015625 12.703125 -294.421875 C 14.117188 -295.835938 15.769531 -296.546875 17.65625 -296.546875 L 109.796875 -296.546875 C 111.910156 -296.546875 114.910156 -296.191406 118.796875 -295.484375 C 122.679688 -294.773438 126.210938 -292.710938 129.390625 -289.296875 C 132.566406 -285.890625 134.15625 -280.066406 134.15625 -271.828125 Z M 66.71875 -251 L 66.71875 -119.671875 L 83.671875 -119.671875 L 83.671875 -251 Z M 66.71875 -251 "/></g></g><g style="fill:#ffde59;fill-opacity:1;"><g transform="translate(223.308043, 670.858105)"><path style="stroke:none" d="M 10.59375 -24.71875 L 10.59375 -271.828125 C 10.59375 -279.835938 12.117188 -285.546875 15.171875 -288.953125 C 18.234375 -292.367188 21.707031 -294.488281 25.59375 -295.3125 C 29.476562 -296.132812 32.476562 -296.546875 34.59375 -296.546875 L 115.796875 -296.546875 C 117.910156 -296.546875 120.910156 -296.191406 124.796875 -295.484375 C 128.679688 -294.773438 132.210938 -292.710938 135.390625 -289.296875 C 138.566406 -285.890625 140.15625 -280.066406 140.15625 -271.828125 L 140.15625 -24.71875 C 140.15625 -16.707031 138.566406 -10.9375 135.390625 -7.40625 C 132.210938 -3.882812 128.679688 -1.769531 124.796875 -1.0625 C 120.910156 -0.351562 117.910156 0 115.796875 0 L 34.953125 0 C 32.828125 0 29.820312 -0.351562 25.9375 -1.0625 C 22.0625 -1.769531 18.535156 -3.882812 15.359375 -7.40625 C 12.179688 -10.9375 10.59375 -16.707031 10.59375 -24.71875 Z M 83.671875 -45.546875 L 83.671875 -251 L 66.71875 -251 L 66.71875 -45.546875 Z M 83.671875 -45.546875 "/></g></g><g style="fill:#ffde59;fill-opacity:1;"><g transform="translate(374.054299, 670.858105)"><path style="stroke:none" d="M 140.5 -271.828125 L 140.5 -172.625 C 140.5 -164.394531 138.910156 -158.570312 135.734375 -155.15625 C 132.554688 -151.738281 128.96875 -149.675781 124.96875 -148.96875 C 120.96875 -148.269531 117.910156 -147.921875 115.796875 -147.921875 L 115.796875 -146.15625 C 117.910156 -146.15625 120.910156 -145.800781 124.796875 -145.09375 C 128.679688 -144.382812 132.148438 -142.320312 135.203125 -138.90625 C 138.265625 -135.5 139.796875 -129.675781 139.796875 -121.4375 L 139.796875 -7.0625 C 139.796875 -5.175781 139.085938 -3.523438 137.671875 -2.109375 C 136.265625 -0.703125 134.617188 0 132.734375 0 L 90.734375 0 C 88.847656 0 87.195312 -0.703125 85.78125 -2.109375 C 84.375 -3.523438 83.671875 -5.175781 83.671875 -7.0625 L 83.671875 -125.671875 L 66.71875 -125.671875 L 66.71875 -7.0625 C 66.71875 -5.175781 66.007812 -3.523438 64.59375 -2.109375 C 63.1875 -0.703125 61.539062 0 59.65625 0 L 17.65625 0 C 15.769531 0 14.117188 -0.703125 12.703125 -2.109375 C 11.296875 -3.523438 10.59375 -5.175781 10.59375 -7.0625 L 10.59375 -289.484375 C 10.59375 -291.367188 11.296875 -293.015625 12.703125 -294.421875 C 14.117188 -295.835938 15.769531 -296.546875 17.65625 -296.546875 L 116.140625 -296.546875 C 118.265625 -296.546875 121.265625 -296.191406 125.140625 -295.484375 C 129.023438 -294.773438 132.554688 -292.710938 135.734375 -289.296875 C 138.910156 -285.890625 140.5 -280.066406 140.5 -271.828125 Z M 66.71875 -251 L 66.71875 -170.859375 L 83.671875 -170.859375 L 83.671875 -251 Z M 66.71875 -251 "/></g></g><g style="fill:#ffde59;fill-opacity:1;"><g transform="translate(525.153528, 670.858105)"><path style="stroke:none" d="M -59.65625 -353.03125 L 136.625 -353.03125 C 138.507812 -353.03125 140.15625 -352.320312 141.5625 -350.90625 C 142.976562 -349.5 143.6875 -347.851562 143.6875 -345.96875 L 143.6875 -314.546875 C 143.6875 -312.660156 142.976562 -311.007812 141.5625 -309.59375 C 140.15625 -308.1875 138.507812 -307.484375 136.625 -307.484375 L 66.375 -307.484375 L 66.375 -7.0625 C 66.375 -5.175781 65.664062 -3.523438 64.25 -2.109375 C 62.84375 -0.703125 61.195312 0 59.3125 0 L 17.65625 0 C 15.769531 0 14.117188 -0.703125 12.703125 -2.109375 C 11.296875 -3.523438 10.59375 -5.175781 10.59375 -7.0625 L 10.59375 -307.484375 L -59.65625 -307.484375 C -61.539062 -307.484375 -63.1875 -308.1875 -64.59375 -309.59375 C -66.007812 -311.007812 -66.71875 -312.660156 -66.71875 -314.546875 L -66.71875 -345.96875 C -66.71875 -347.851562 -66.007812 -349.5 -64.59375 -350.90625 C -63.1875 -352.320312 -61.539062 -353.03125 -59.65625 -353.03125 Z M -59.65625 -353.03125 "/></g></g><g style="fill:#ffde59;fill-opacity:1;"><g transform="translate(602.468363, 670.858105)"><path style="stroke:none" d="M 10.59375 -24.71875 L 10.59375 -271.828125 C 10.59375 -279.835938 12.117188 -285.546875 15.171875 -288.953125 C 18.234375 -292.367188 21.707031 -294.488281 25.59375 -295.3125 C 29.476562 -296.132812 32.476562 -296.546875 34.59375 -296.546875 L 115.796875 -296.546875 C 117.910156 -296.546875 120.910156 -296.191406 124.796875 -295.484375 C 128.679688 -294.773438 132.210938 -292.710938 135.390625 -289.296875 C 138.566406 -285.890625 140.15625 -280.066406 140.15625 -271.828125 L 140.15625 -24.71875 C 140.15625 -16.707031 138.566406 -10.9375 135.390625 -7.40625 C 132.210938 -3.882812 128.679688 -1.769531 124.796875 -1.0625 C 120.910156 -0.351562 117.910156 0 115.796875 0 L 34.953125 0 C 32.828125 0 29.820312 -0.351562 25.9375 -1.0625 C 22.0625 -1.769531 18.535156 -3.882812 15.359375 -7.40625 C 12.179688 -10.9375 10.59375 -16.707031 10.59375 -24.71875 Z M 83.671875 -45.546875 L 83.671875 -251 L 66.71875 -251 L 66.71875 -45.546875 Z M 83.671875 -45.546875 "/></g></g><g style="fill:#ffde59;fill-opacity:1;"><g transform="translate(753.214618, 670.858105)"><path style="stroke:none" d="M 10.59375 -7.0625 L 10.59375 -289.484375 C 10.59375 -291.367188 11.296875 -293.015625 12.703125 -294.421875 C 14.117188 -295.835938 15.769531 -296.546875 17.65625 -296.546875 L 122.5 -296.546875 C 124.382812 -296.546875 125.972656 -295.894531 127.265625 -294.59375 C 128.554688 -293.300781 129.203125 -291.597656 129.203125 -289.484375 L 129.203125 -258.0625 C 129.203125 -256.175781 128.492188 -254.523438 127.078125 -253.109375 C 125.671875 -251.703125 124.03125 -251 122.15625 -251 L 66.71875 -251 L 66.71875 -153.21875 L 111.90625 -153.21875 C 113.789062 -153.21875 115.4375 -152.507812 116.84375 -151.09375 C 118.257812 -149.6875 118.96875 -148.039062 118.96875 -146.15625 L 118.96875 -111.5625 C 118.96875 -109.675781 118.257812 -108.023438 116.84375 -106.609375 C 115.4375 -105.203125 113.789062 -104.5 111.90625 -104.5 L 66.71875 -104.5 L 66.71875 -7.0625 C 66.71875 -5.175781 66.007812 -3.523438 64.59375 -2.109375 C 63.1875 -0.703125 61.539062 0 59.65625 0 L 17.65625 0 C 15.769531 0 14.117188 -0.703125 12.703125 -2.109375 C 11.296875 -3.523438 10.59375 -5.175781 10.59375 -7.0625 Z M 10.59375 -7.0625 "/></g></g><g style="fill:#ffde59;fill-opacity:1;"><g transform="translate(888.780311, 670.858105)"><path style="stroke:none" d="M 10.59375 -24.71875 L 10.59375 -271.828125 C 10.59375 -279.835938 12.117188 -285.546875 15.171875 -288.953125 C 18.234375 -292.367188 21.707031 -294.488281 25.59375 -295.3125 C 29.476562 -296.132812 32.476562 -296.546875 34.59375 -296.546875 L 115.796875 -296.546875 C 117.910156 -296.546875 120.910156 -296.191406 124.796875 -295.484375 C 128.679688 -294.773438 132.210938 -292.710938 135.390625 -289.296875 C 138.566406 -285.890625 140.15625 -280.066406 140.15625 -271.828125 L 140.15625 -24.71875 C 140.15625 -16.707031 138.566406 -10.9375 135.390625 -7.40625 C 132.210938 -3.882812 128.679688 -1.769531 124.796875 -1.0625 C 120.910156 -0.351562 117.910156 0 115.796875 0 L 34.953125 0 C 32.828125 0 29.820312 -0.351562 25.9375 -1.0625 C 22.0625 -1.769531 18.535156 -3.882812 15.359375 -7.40625 C 12.179688 -10.9375 10.59375 -16.707031 10.59375 -24.71875 Z M 83.671875 -45.546875 L 83.671875 -251 L 66.71875 -251 L 66.71875 -45.546875 Z M 83.671875 -45.546875 "/></g></g><g style="fill:#ffde59;fill-opacity:1;"><g transform="translate(1039.526566, 670.858105)"><path style="stroke:none" d="M 66.71875 -289.484375 L 66.71875 14.46875 L 139.796875 14.46875 C 141.679688 14.46875 143.328125 15.171875 144.734375 16.578125 C 146.148438 17.992188 146.859375 19.644531 146.859375 21.53125 L 146.859375 56.484375 C 146.859375 58.367188 146.148438 60.015625 144.734375 61.421875 C 143.328125 62.835938 141.679688 63.546875 139.796875 63.546875 L 17.65625 63.546875 C 15.769531 63.546875 14.117188 62.835938 12.703125 61.421875 C 11.296875 60.015625 10.59375 58.367188 10.59375 56.484375 L 10.59375 -289.484375 C 10.59375 -291.367188 11.296875 -293.015625 12.703125 -294.421875 C 14.117188 -295.835938 15.769531 -296.546875 17.65625 -296.546875 L 59.65625 -296.546875 C 61.539062 -296.546875 63.1875 -295.835938 64.59375 -294.421875 C 66.007812 -293.015625 66.71875 -291.367188 66.71875 -289.484375 Z M 66.71875 -289.484375 "/></g></g><g style="fill:#ffde59;fill-opacity:1;"><g transform="translate(1116.841401, 670.858105)"><path style="stroke:none" d="M 17.65625 -296.546875 L 59.65625 -296.546875 C 61.539062 -296.546875 63.1875 -295.835938 64.59375 -294.421875 C 66.007812 -293.015625 66.71875 -291.367188 66.71875 -289.484375 L 66.71875 -7.0625 C 66.71875 -5.175781 66.007812 -3.523438 64.59375 -2.109375 C 63.1875 -0.703125 61.539062 0 59.65625 0 L 17.65625 0 C 15.769531 0 14.117188 -0.703125 12.703125 -2.109375 C 11.296875 -3.523438 10.59375 -5.175781 10.59375 -7.0625 L 10.59375 -289.484375 C 10.59375 -291.367188 11.296875 -293.015625 12.703125 -294.421875 C 14.117188 -295.835938 15.769531 -296.546875 17.65625 -296.546875 Z M 17.65625 -296.546875 "/></g></g><g style="fill:#ffde59;fill-opacity:1;"><g transform="translate(1194.156235, 670.858105)"><path style="stroke:none" d="M 10.59375 -24.71875 L 10.59375 -271.828125 C 10.59375 -279.835938 12.117188 -285.546875 15.171875 -288.953125 C 18.234375 -292.367188 21.707031 -294.488281 25.59375 -295.3125 C 29.476562 -296.132812 32.476562 -296.546875 34.59375 -296.546875 L 115.796875 -296.546875 C 117.910156 -296.546875 120.910156 -296.191406 124.796875 -295.484375 C 128.679688 -294.773438 132.210938 -292.710938 135.390625 -289.296875 C 138.566406 -285.890625 140.15625 -280.066406 140.15625 -271.828125 L 140.15625 -24.71875 C 140.15625 -16.707031 138.566406 -10.9375 135.390625 -7.40625 C 132.210938 -3.882812 128.679688 -1.769531 124.796875 -1.0625 C 120.910156 -0.351562 117.910156 0 115.796875 0 L 34.953125 0 C 32.828125 0 29.820312 -0.351562 25.9375 -1.0625 C 22.0625 -1.769531 18.535156 -3.882812 15.359375 -7.40625 C 12.179688 -10.9375 10.59375 -16.707031 10.59375 -24.71875 Z M 83.671875 -45.546875 L 83.671875 -251 L 66.71875 -251 L 66.71875 -45.546875 Z M 83.671875 -45.546875 "/></g></g><g clip-rule="nonzero" clip-path="url(#e311937fc8)"><path style=" stroke:none;fill-rule:nonzero;fill:#0097b2;fill-opacity:1;" d="M 535.019531 342.15625 L 592.992188 342.15625 L 592.992188 1066.339844 L 535.019531 1066.339844 Z M 535.019531 342.15625 "/></g><g style="fill:#38b6ff;fill-opacity:1;"><g transform="translate(753.193148, 645.638761)"><path style="stroke:none" d="M 10.59375 -7.0625 L 10.59375 -289.484375 C 10.59375 -291.367188 11.296875 -293.015625 12.703125 -294.421875 C 14.117188 -295.835938 15.769531 -296.546875 17.65625 -296.546875 L 122.5 -296.546875 C 124.382812 -296.546875 125.972656 -295.894531 127.265625 -294.59375 C 128.554688 -293.300781 129.203125 -291.597656 129.203125 -289.484375 L 129.203125 -258.0625 C 129.203125 -256.175781 128.492188 -254.523438 127.078125 -253.109375 C 125.671875 -251.703125 124.03125 -251 122.15625 -251 L 66.71875 -251 L 66.71875 -153.21875 L 111.90625 -153.21875 C 113.789062 -153.21875 115.4375 -152.507812 116.84375 -151.09375 C 118.257812 -149.6875 118.96875 -148.039062 118.96875 -146.15625 L 118.96875 -111.5625 C 118.96875 -109.675781 118.257812 -108.023438 116.84375 -106.609375 C 115.4375 -105.203125 113.789062 -104.5 111.90625 -104.5 L 66.71875 -104.5 L 66.71875 -7.0625 C 66.71875 -5.175781 66.007812 -3.523438 64.59375 -2.109375 C 63.1875 -0.703125 61.539062 0 59.65625 0 L 17.65625 0 C 15.769531 0 14.117188 -0.703125 12.703125 -2.109375 C 11.296875 -3.523438 10.59375 -5.175781 10.59375 -7.0625 Z M 10.59375 -7.0625 "/></g></g><g style="fill:#38b6ff;fill-opacity:1;"><g transform="translate(888.758841, 645.638761)"><path style="stroke:none" d="M 10.59375 -24.71875 L 10.59375 -271.828125 C 10.59375 -279.835938 12.117188 -285.546875 15.171875 -288.953125 C 18.234375 -292.367188 21.707031 -294.488281 25.59375 -295.3125 C 29.476562 -296.132812 32.476562 -296.546875 34.59375 -296.546875 L 115.796875 -296.546875 C 117.910156 -296.546875 120.910156 -296.191406 124.796875 -295.484375 C 128.679688 -294.773438 132.210938 -292.710938 135.390625 -289.296875 C 138.566406 -285.890625 140.15625 -280.066406 140.15625 -271.828125 L 140.15625 -24.71875 C 140.15625 -16.707031 138.566406 -10.9375 135.390625 -7.40625 C 132.210938 -3.882812 128.679688 -1.769531 124.796875 -1.0625 C 120.910156 -0.351562 117.910156 0 115.796875 0 L 34.953125 0 C 32.828125 0 29.820312 -0.351562 25.9375 -1.0625 C 22.0625 -1.769531 18.535156 -3.882812 15.359375 -7.40625 C 12.179688 -10.9375 10.59375 -16.707031 10.59375 -24.71875 Z M 83.671875 -45.546875 L 83.671875 -251 L 66.71875 -251 L 66.71875 -45.546875 Z M 83.671875 -45.546875 "/></g></g><g style="fill:#38b6ff;fill-opacity:1;"><g transform="translate(1039.505097, 645.638761)"><path style="stroke:none" d="M 66.71875 -289.484375 L 66.71875 14.46875 L 139.796875 14.46875 C 141.679688 14.46875 143.328125 15.171875 144.734375 16.578125 C 146.148438 17.992188 146.859375 19.644531 146.859375 21.53125 L 146.859375 56.484375 C 146.859375 58.367188 146.148438 60.015625 144.734375 61.421875 C 143.328125 62.835938 141.679688 63.546875 139.796875 63.546875 L 17.65625 63.546875 C 15.769531 63.546875 14.117188 62.835938 12.703125 61.421875 C 11.296875 60.015625 10.59375 58.367188 10.59375 56.484375 L 10.59375 -289.484375 C 10.59375 -291.367188 11.296875 -293.015625 12.703125 -294.421875 C 14.117188 -295.835938 15.769531 -296.546875 17.65625 -296.546875 L 59.65625 -296.546875 C 61.539062 -296.546875 63.1875 -295.835938 64.59375 -294.421875 C 66.007812 -293.015625 66.71875 -291.367188 66.71875 -289.484375 Z M 66.71875 -289.484375 "/></g></g><g style="fill:#38b6ff;fill-opacity:1;"><g transform="translate(1116.819931, 645.638761)"><path style="stroke:none" d="M 17.65625 -296.546875 L 59.65625 -296.546875 C 61.539062 -296.546875 63.1875 -295.835938 64.59375 -294.421875 C 66.007812 -293.015625 66.71875 -291.367188 66.71875 -289.484375 L 66.71875 -7.0625 C 66.71875 -5.175781 66.007812 -3.523438 64.59375 -2.109375 C 63.1875 -0.703125 61.539062 0 59.65625 0 L 17.65625 0 C 15.769531 0 14.117188 -0.703125 12.703125 -2.109375 C 11.296875 -3.523438 10.59375 -5.175781 10.59375 -7.0625 L 10.59375 -289.484375 C 10.59375 -291.367188 11.296875 -293.015625 12.703125 -294.421875 C 14.117188 -295.835938 15.769531 -296.546875 17.65625 -296.546875 Z M 17.65625 -296.546875 "/></g></g><g style="fill:#38b6ff;fill-opacity:1;"><g transform="translate(1194.134765, 645.638761)"><path style="stroke:none" d="M 10.59375 -24.71875 L 10.59375 -271.828125 C 10.59375 -279.835938 12.117188 -285.546875 15.171875 -288.953125 C 18.234375 -292.367188 21.707031 -294.488281 25.59375 -295.3125 C 29.476562 -296.132812 32.476562 -296.546875 34.59375 -296.546875 L 115.796875 -296.546875 C 117.910156 -296.546875 120.910156 -296.191406 124.796875 -295.484375 C 128.679688 -294.773438 132.210938 -292.710938 135.390625 -289.296875 C 138.566406 -285.890625 140.15625 -280.066406 140.15625 -271.828125 L 140.15625 -24.71875 C 140.15625 -16.707031 138.566406 -10.9375 135.390625 -7.40625 C 132.210938 -3.882812 128.679688 -1.769531 124.796875 -1.0625 C 120.910156 -0.351562 117.910156 0 115.796875 0 L 34.953125 0 C 32.828125 0 29.820312 -0.351562 25.9375 -1.0625 C 22.0625 -1.769531 18.535156 -3.882812 15.359375 -7.40625 C 12.179688 -10.9375 10.59375 -16.707031 10.59375 -24.71875 Z M 83.671875 -45.546875 L 83.671875 -251 L 66.71875 -251 L 66.71875 -45.546875 Z M 83.671875 -45.546875 "/></g></g><g style="fill:#0097b2;fill-opacity:1;"><g transform="translate(524.767523, 662.846457)"><path style="stroke:none" d="M -61.296875 -362.734375 L 140.375 -362.734375 C 142.3125 -362.734375 144.003906 -362.003906 145.453125 -360.546875 C 146.910156 -359.097656 147.640625 -357.410156 147.640625 -355.484375 L 147.640625 -323.203125 C 147.640625 -321.265625 146.910156 -319.566406 145.453125 -318.109375 C 144.003906 -316.660156 142.3125 -315.9375 140.375 -315.9375 L 68.1875 -315.9375 L 68.1875 -7.25 C 68.1875 -5.320312 67.460938 -3.628906 66.015625 -2.171875 C 64.566406 -0.722656 62.875 0 60.9375 0 L 18.140625 0 C 16.203125 0 14.503906 -0.722656 13.046875 -2.171875 C 11.597656 -3.628906 10.875 -5.320312 10.875 -7.25 L 10.875 -315.9375 L -61.296875 -315.9375 C -63.234375 -315.9375 -64.925781 -316.660156 -66.375 -318.109375 C -67.832031 -319.566406 -68.5625 -321.265625 -68.5625 -323.203125 L -68.5625 -355.484375 C -68.5625 -357.410156 -67.832031 -359.097656 -66.375 -360.546875 C -64.925781 -362.003906 -63.234375 -362.734375 -61.296875 -362.734375 Z M -61.296875 -362.734375 "/></g></g><g style="fill:#ffde59;fill-opacity:1;"><g transform="translate(767.083096, 1037.928904)"><path style="stroke:none" d="M 10.59375 -296.515625 L 52.59375 -296.515625 C 56.832031 -296.515625 59.1875 -294.398438 59.65625 -290.171875 L 72.015625 -82.609375 L 74.84375 -82.609375 L 87.1875 -290.171875 C 87.65625 -294.398438 90.007812 -296.515625 94.25 -296.515625 L 136.265625 -296.515625 C 138.140625 -296.515625 139.78125 -295.804688 141.1875 -294.390625 C 142.601562 -292.984375 143.3125 -291.101562 143.3125 -288.75 L 111.90625 -6.359375 C 111.425781 -2.117188 109.070312 0 104.84375 0 L 42 0 C 37.769531 0 35.421875 -2.117188 34.953125 -6.359375 L 3.53125 -289.453125 C 3.53125 -291.335938 4.234375 -292.984375 5.640625 -294.390625 C 7.054688 -295.804688 8.707031 -296.515625 10.59375 -296.515625 Z M 10.59375 -296.515625 "/></g></g><g style="fill:#ffde59;fill-opacity:1;"><g transform="translate(913.897197, 1037.928904)"><path style="stroke:none" d="M 10.59375 -7.0625 L 10.59375 -289.453125 C 10.59375 -291.335938 11.296875 -292.984375 12.703125 -294.390625 C 14.117188 -295.804688 15.769531 -296.515625 17.65625 -296.515625 L 120.71875 -296.515625 C 122.601562 -296.515625 124.191406 -295.867188 125.484375 -294.578125 C 126.785156 -293.285156 127.4375 -291.578125 127.4375 -289.453125 L 127.4375 -258.046875 C 127.4375 -256.160156 126.726562 -254.507812 125.3125 -253.09375 C 123.90625 -251.6875 122.257812 -250.984375 120.375 -250.984375 L 66.71875 -250.984375 L 66.71875 -177.90625 L 103.078125 -177.90625 C 104.960938 -177.90625 106.609375 -177.195312 108.015625 -175.78125 C 109.429688 -174.375 110.140625 -172.734375 110.140625 -170.859375 L 110.140625 -136.265625 C 110.140625 -134.378906 109.429688 -132.726562 108.015625 -131.3125 C 106.609375 -129.90625 104.960938 -129.203125 103.078125 -129.203125 L 66.71875 -129.203125 L 66.71875 -45.53125 L 120.375 -45.53125 C 122.257812 -45.53125 123.90625 -44.820312 125.3125 -43.40625 C 126.726562 -42 127.550781 -40.359375 127.78125 -38.484375 L 127.78125 -7.0625 C 127.78125 -5.175781 127.070312 -3.523438 125.65625 -2.109375 C 124.25 -0.703125 122.601562 0 120.71875 0 L 17.65625 0 C 15.769531 0 14.117188 -0.703125 12.703125 -2.109375 C 11.296875 -3.523438 10.59375 -5.175781 10.59375 -7.0625 Z M 10.59375 -7.0625 "/></g></g><g style="fill:#ffde59;fill-opacity:1;"><g transform="translate(1052.241184, 1037.928904)"><path style="stroke:none" d="M 140.5 -271.8125 L 140.5 -172.609375 C 140.5 -164.378906 138.910156 -158.554688 135.734375 -155.140625 C 132.554688 -151.734375 128.96875 -149.675781 124.96875 -148.96875 C 120.96875 -148.257812 117.90625 -147.90625 115.78125 -147.90625 L 115.78125 -146.140625 C 117.90625 -146.140625 120.90625 -145.785156 124.78125 -145.078125 C 128.664062 -144.378906 132.132812 -142.320312 135.1875 -138.90625 C 138.25 -135.488281 139.78125 -129.664062 139.78125 -121.4375 L 139.78125 -7.0625 C 139.78125 -5.175781 139.070312 -3.523438 137.65625 -2.109375 C 136.25 -0.703125 134.609375 0 132.734375 0 L 90.71875 0 C 88.832031 0 87.179688 -0.703125 85.765625 -2.109375 C 84.359375 -3.523438 83.65625 -5.175781 83.65625 -7.0625 L 83.65625 -125.671875 L 66.71875 -125.671875 L 66.71875 -7.0625 C 66.71875 -5.175781 66.007812 -3.523438 64.59375 -2.109375 C 63.1875 -0.703125 61.539062 0 59.65625 0 L 17.65625 0 C 15.769531 0 14.117188 -0.703125 12.703125 -2.109375 C 11.296875 -3.523438 10.59375 -5.175781 10.59375 -7.0625 L 10.59375 -289.453125 C 10.59375 -291.335938 11.296875 -292.984375 12.703125 -294.390625 C 14.117188 -295.804688 15.769531 -296.515625 17.65625 -296.515625 L 116.140625 -296.515625 C 118.253906 -296.515625 121.253906 -296.160156 125.140625 -295.453125 C 129.023438 -294.753906 132.554688 -292.695312 135.734375 -289.28125 C 138.910156 -285.875 140.5 -280.050781 140.5 -271.8125 Z M 66.71875 -250.984375 L 66.71875 -170.859375 L 83.65625 -170.859375 L 83.65625 -250.984375 Z M 66.71875 -250.984375 "/></g></g><g style="fill:#ffde59;fill-opacity:1;"><g transform="translate(1203.290302, 1037.928904)"><path style="stroke:none" d="M 17.65625 -56.484375 L 59.65625 -56.484375 C 61.539062 -56.484375 63.1875 -55.773438 64.59375 -54.359375 C 66.007812 -52.953125 66.71875 -51.304688 66.71875 -49.421875 L 66.71875 -7.0625 C 66.71875 -5.175781 66.007812 -3.523438 64.59375 -2.109375 C 63.1875 -0.703125 61.539062 0 59.65625 0 L 17.65625 0 C 15.769531 0 14.117188 -0.703125 12.703125 -2.109375 C 11.296875 -3.523438 10.59375 -5.175781 10.59375 -7.0625 L 10.59375 -49.421875 C 10.59375 -51.304688 11.296875 -52.953125 12.703125 -54.359375 C 14.117188 -55.773438 15.769531 -56.484375 17.65625 -56.484375 Z M 17.65625 -56.484375 "/></g></g><g style="fill:#ffde59;fill-opacity:1;"><g transform="translate(1280.5794, 1037.928904)"><path style="stroke:none" d="M 118.609375 0 L 35.296875 0 C 33.179688 0 30.179688 -0.351562 26.296875 -1.0625 C 22.410156 -1.769531 18.878906 -3.882812 15.703125 -7.40625 C 12.523438 -10.9375 10.9375 -16.703125 10.9375 -24.703125 L 10.9375 -146.140625 C 10.9375 -154.378906 12.523438 -160.203125 15.703125 -163.609375 C 18.878906 -167.023438 22.347656 -169.085938 26.109375 -169.796875 C 29.878906 -170.503906 32.828125 -170.859375 34.953125 -170.859375 L 73.078125 -170.859375 L 73.078125 -250.984375 L 17.65625 -250.984375 C 15.769531 -250.984375 14.117188 -251.6875 12.703125 -253.09375 C 11.296875 -254.507812 10.59375 -256.160156 10.59375 -258.046875 L 10.59375 -289.453125 C 10.59375 -291.335938 11.296875 -292.984375 12.703125 -294.390625 C 14.117188 -295.804688 15.769531 -296.515625 17.65625 -296.515625 L 104.84375 -296.515625 C 106.957031 -296.515625 109.957031 -296.160156 113.84375 -295.453125 C 117.726562 -294.753906 121.257812 -292.695312 124.4375 -289.28125 C 127.613281 -285.875 129.203125 -280.164062 129.203125 -272.15625 L 129.203125 -153.203125 C 129.203125 -145.203125 127.613281 -139.4375 124.4375 -135.90625 C 121.257812 -132.375 117.726562 -130.253906 113.84375 -129.546875 C 109.957031 -128.835938 106.957031 -128.484375 104.84375 -128.484375 L 66.71875 -128.484375 L 66.71875 -49.765625 L 118.609375 -49.765625 C 120.492188 -49.765625 122.140625 -49.054688 123.546875 -47.640625 C 124.960938 -46.234375 125.671875 -44.59375 125.671875 -42.71875 L 125.671875 -7.0625 C 125.671875 -5.175781 124.960938 -3.523438 123.546875 -2.109375 C 122.140625 -0.703125 120.492188 0 118.609375 0 Z M 118.609375 0 "/></g></g></g></svg>