<svg xmlns="http://www.w3.org/2000/svg" xmlns:xlink="http://www.w3.org/1999/xlink" width="1890" zoomAndPan="magnify" viewBox="0 0 1417.5 1417.500002" height="1890" preserveAspectRatio="xMidYMid meet" version="1.2"><defs/><g id="0a80f32537"><g style="fill:#ffde59;fill-opacity:1;"><g transform="translate(358.58596, 1021.474745)"><path style="stroke:none" d="M 502.4375 -9.59375 C 503.507812 -7.46875 503.242188 -5.335938 501.640625 -3.203125 C 500.035156 -1.066406 497.898438 0 495.234375 0 L 384.828125 0 C 381.097656 0 378.695312 -1.597656 377.625 -4.796875 L 251.21875 -361.625 L 126.40625 -4.796875 C 125.875 -1.597656 123.207031 0 118.40625 0 L 8.796875 0 C 5.066406 0 2.535156 -1.066406 1.203125 -3.203125 C -0.128906 -5.335938 -0.265625 -7.46875 0.796875 -9.59375 L 243.21875 -635.25 C 244.28125 -638.445312 246.945312 -640.046875 251.21875 -640.046875 C 255.488281 -640.046875 258.15625 -638.445312 259.21875 -635.25 Z M 502.4375 -9.59375 "/></g></g><g style="fill:#ffffff;fill-opacity:1;"><g transform="translate(23.37875, 809.40039)"><path style="stroke:none" d="M 134.75 -163.015625 C 150.164062 -155.921875 161.972656 -145.578125 170.171875 -131.984375 C 178.378906 -118.398438 182.484375 -102.921875 182.484375 -85.546875 C 182.484375 -67.191406 178.132812 -51.648438 169.4375 -38.921875 C 160.75 -26.191406 149.488281 -16.519531 135.65625 -9.90625 C 121.832031 -3.300781 107.085938 0 91.421875 0 C 91.421875 0 91.300781 0 91.0625 0 L 91.0625 -52.875 C 91.300781 -52.875 91.421875 -52.875 91.421875 -52.875 C 101.210938 -52.875 109.78125 -55.867188 117.125 -61.859375 C 124.46875 -67.859375 128.140625 -75.753906 128.140625 -85.546875 C 128.140625 -92.890625 126.238281 -99.128906 122.4375 -104.265625 C 118.644531 -109.410156 113.929688 -113.453125 108.296875 -116.390625 C 102.671875 -119.328125 97.046875 -120.914062 91.421875 -121.15625 C 90.203125 -121.15625 85.304688 -121.582031 76.734375 -122.4375 C 68.171875 -123.300781 58.503906 -126.179688 47.734375 -131.078125 C 32.554688 -138.171875 20.804688 -148.019531 12.484375 -160.625 C 4.160156 -173.238281 0 -188.109375 0 -205.234375 C 0 -223.597656 4.34375 -239.390625 13.03125 -252.609375 C 21.71875 -265.828125 33.035156 -275.984375 46.984375 -283.078125 C 60.941406 -290.171875 75.753906 -293.71875 91.421875 -293.71875 C 108.304688 -293.71875 123.476562 -290.226562 136.9375 -283.25 C 150.40625 -276.28125 161.117188 -266.492188 169.078125 -253.890625 C 177.035156 -241.285156 181.132812 -226.660156 181.375 -210.015625 C 181.625 -209.523438 181.316406 -208.910156 180.453125 -208.171875 C 179.597656 -207.441406 178.5625 -207.078125 177.34375 -207.078125 L 131.4375 -207.078125 C 130.457031 -207.078125 129.539062 -207.441406 128.6875 -208.171875 C 127.832031 -208.910156 127.40625 -209.523438 127.40625 -210.015625 C 127.15625 -220.535156 123.476562 -228.304688 116.375 -233.328125 C 109.28125 -238.347656 100.960938 -240.859375 91.421875 -240.859375 C 81.390625 -240.859375 72.757812 -237.859375 65.53125 -231.859375 C 58.3125 -225.859375 54.703125 -216.984375 54.703125 -205.234375 C 54.703125 -194.710938 58.492188 -186.695312 66.078125 -181.1875 C 73.671875 -175.6875 82.117188 -172.9375 91.421875 -172.9375 C 92.148438 -172.9375 94.59375 -172.8125 98.75 -172.5625 C 102.914062 -172.320312 108.242188 -171.523438 114.734375 -170.171875 C 121.222656 -168.828125 127.894531 -166.441406 134.75 -163.015625 Z M 134.75 -163.015625 "/></g></g><g style="fill:#ffffff;fill-opacity:1;"><g transform="translate(215.032757, 809.40039)"><path style="stroke:none" d="M 56.171875 -166.328125 L 0 -166.328125 L 0 -290.421875 C 0 -292.617188 1.34375 -293.71875 4.03125 -293.71875 L 52.140625 -293.71875 C 54.828125 -293.71875 56.171875 -292.617188 56.171875 -290.421875 Z M 219.5625 -293.71875 C 222.25 -293.71875 223.59375 -292.617188 223.59375 -290.421875 L 223.59375 -3.296875 C 223.59375 -1.097656 222.25 0 219.5625 0 L 171.46875 0 C 168.769531 0 167.421875 -1.097656 167.421875 -3.296875 L 167.421875 -55.078125 L 56.171875 -55.078125 L 56.171875 -3.296875 C 56.171875 -1.097656 54.828125 0 52.140625 0 L 4.03125 0 C 1.34375 0 0 -1.097656 0 -3.296875 L 0 -110.140625 L 56.171875 -110.140625 L 56.171875 -109.78125 L 167.421875 -109.78125 L 167.421875 -290.421875 C 167.421875 -292.617188 168.769531 -293.71875 171.46875 -293.71875 Z M 219.5625 -293.71875 "/></g></g><g style="fill:#ffffff;fill-opacity:1;"><g transform="translate(450.019893, 809.40039)"><path style="stroke:none" d=""/></g></g><g style="fill:#ffffff;fill-opacity:1;"><g transform="translate(541.80819, 809.40039)"><path style="stroke:none" d=""/></g></g><g style="fill:#ffffff;fill-opacity:1;"><g transform="translate(633.596487, 809.40039)"><path style="stroke:none" d=""/></g></g><g style="fill:#ffffff;fill-opacity:1;"><g transform="translate(725.384784, 809.40039)"><path style="stroke:none" d=""/></g></g><g style="fill:#ffffff;fill-opacity:1;"><g transform="translate(817.178482, 809.40039)"><path style="stroke:none" d="M 171.828125 -54.34375 C 174.523438 -54.34375 175.875 -53.238281 175.875 -51.03125 L 175.875 -3.296875 C 175.875 -1.097656 174.40625 0 171.46875 0 L 4.765625 0 C 0.859375 0 -0.484375 -1.585938 0.734375 -4.765625 L 20.921875 -54.34375 Z M 4.03125 -239.015625 C 1.34375 -239.015625 0 -240.238281 0 -242.6875 L 0 -290.421875 C 0 -292.617188 1.34375 -293.71875 4.03125 -293.71875 L 171.09375 -293.71875 C 174.519531 -293.71875 175.867188 -292.128906 175.140625 -288.953125 L 103.53125 -110.515625 L 43.328125 -110.515625 L 94.71875 -239.015625 Z M 4.03125 -239.015625 "/></g></g><g style="fill:#ffffff;fill-opacity:1;"><g transform="translate(1001.85655, 809.40039)"><path style="stroke:none" d="M 53.609375 -149.0625 C 53.609375 -132.90625 57.15625 -117.664062 64.25 -103.34375 C 71.351562 -89.03125 81.453125 -77.40625 94.546875 -68.46875 C 107.640625 -59.539062 123 -55.078125 140.625 -55.078125 C 146.988281 -55.078125 153.84375 -55.992188 161.1875 -57.828125 C 168.53125 -59.660156 175.382812 -62.171875 181.75 -65.359375 L 60.578125 -186.515625 C 58.378906 -180.640625 56.664062 -174.519531 55.4375 -168.15625 C 54.21875 -161.789062 53.609375 -155.425781 53.609375 -149.0625 Z M 228.375 -149.0625 C 228.375 -165.46875 225.003906 -180.707031 218.265625 -194.78125 C 211.535156 -208.851562 201.6875 -220.234375 188.71875 -228.921875 C 175.75 -237.609375 159.71875 -241.953125 140.625 -241.953125 C 131.5625 -241.953125 123.175781 -240.847656 115.46875 -238.640625 C 107.757812 -236.441406 100.722656 -233.265625 94.359375 -229.109375 L 218.828125 -104.640625 C 221.765625 -111.003906 224.085938 -118.222656 225.796875 -126.296875 C 227.515625 -134.378906 228.375 -141.96875 228.375 -149.0625 Z M 284.171875 -37.453125 C 286.378906 -35.984375 286.378906 -34.390625 284.171875 -32.671875 L 252.609375 -0.734375 C 250.648438 0.484375 248.691406 0.484375 246.734375 -0.734375 L 220.296875 -27.53125 C 208.785156 -19.945312 196.238281 -14.007812 182.65625 -9.71875 C 169.070312 -5.4375 155.0625 -3.296875 140.625 -3.296875 C 119.570312 -3.296875 100.414062 -7.210938 83.15625 -15.046875 C 65.90625 -22.878906 51.097656 -33.585938 38.734375 -47.171875 C 26.367188 -60.765625 16.820312 -76.3125 10.09375 -93.8125 C 3.363281 -111.3125 0 -129.726562 0 -149.0625 C 0 -168.15625 3.238281 -186.390625 9.71875 -203.765625 C 16.207031 -221.148438 25.570312 -236.570312 37.8125 -250.03125 C 50.050781 -263.5 64.796875 -274.144531 82.046875 -281.96875 C 99.304688 -289.800781 118.832031 -293.71875 140.625 -293.71875 C 161.675781 -293.71875 180.765625 -289.800781 197.890625 -281.96875 C 215.023438 -274.144531 229.894531 -263.5 242.5 -250.03125 C 255.113281 -236.570312 264.785156 -221.148438 271.515625 -203.765625 C 278.242188 -186.390625 281.609375 -168.15625 281.609375 -149.0625 C 281.609375 -134.863281 279.46875 -120.113281 275.1875 -104.8125 C 270.90625 -89.519531 264.96875 -76.125 257.375 -64.625 Z M 284.171875 -37.453125 "/></g></g><g style="fill:#ffffff;fill-opacity:1;"><g transform="translate(1301.82596, 809.40039)"><path style="stroke:none" d=""/></g></g><g style="fill:#ff90bb;fill-opacity:1;"><g transform="translate(334.855485, 1138.957326)"><path style="stroke:none" d="M 547.5625 -10.46875 C 548.726562 -8.132812 548.4375 -5.804688 546.6875 -3.484375 C 544.945312 -1.160156 542.625 0 539.71875 0 L 419.390625 0 C 415.328125 0 412.710938 -1.742188 411.546875 -5.234375 L 273.78125 -394.109375 L 137.765625 -5.234375 C 137.179688 -1.742188 134.273438 0 129.046875 0 L 9.59375 0 C 5.519531 0 2.753906 -1.160156 1.296875 -3.484375 C -0.148438 -5.804688 -0.289062 -8.132812 0.875 -10.46875 L 265.0625 -692.3125 C 266.226562 -695.789062 269.132812 -697.53125 273.78125 -697.53125 C 278.4375 -697.53125 281.34375 -695.789062 282.5 -692.3125 Z M 547.5625 -10.46875 "/></g></g><g style="fill:#ff90bb;fill-opacity:1;"><g transform="translate(886.641487, 1143.922662)"><path style="stroke:none" d="M 42 -300.890625 C 40 -298.609375 39.210938 -294.535156 39.640625 -288.671875 C 40.078125 -282.816406 40.9375 -276.816406 42.21875 -270.671875 C 43.5 -264.535156 44.140625 -259.75 44.140625 -256.3125 C 44.429688 -247.738281 44.289062 -239.09375 43.71875 -230.375 C 43.144531 -221.664062 42.71875 -212.882812 42.4375 -204.03125 C 42.4375 -190.019531 42.503906 -176.15625 42.640625 -162.4375 C 42.785156 -148.726562 43.003906 -134.875 43.296875 -120.875 C 43.859375 -103.15625 44.210938 -85.363281 44.359375 -67.5 C 44.503906 -49.644531 43.429688 -31.859375 41.140625 -14.140625 C 40.859375 -12.140625 40.644531 -10.140625 40.5 -8.140625 C 40.363281 -6.140625 40.722656 -4.140625 41.578125 -2.140625 C 42.722656 0.710938 44.648438 2.28125 47.359375 2.5625 C 50.078125 2.851562 53.003906 2.640625 56.140625 1.921875 C 59.285156 1.210938 62.003906 0.710938 64.296875 0.421875 C 69.148438 -0.140625 74.078125 -0.207031 79.078125 0.21875 C 84.078125 0.644531 88.863281 1.144531 93.4375 1.71875 C 96.007812 2 99.296875 2.425781 103.296875 3 C 107.296875 3.570312 111.222656 3.644531 115.078125 3.21875 C 118.941406 2.789062 121.726562 1.144531 123.4375 -1.71875 C 124.875 -4.289062 125.234375 -7.359375 124.515625 -10.921875 C 123.796875 -14.492188 123.296875 -17.566406 123.015625 -20.140625 C 122.441406 -25.578125 122.226562 -31.222656 122.375 -37.078125 C 122.519531 -42.929688 122.59375 -48.570312 122.59375 -54 L 121.296875 -121.734375 C 121.015625 -144.304688 120.800781 -166.878906 120.65625 -189.453125 C 120.507812 -212.023438 121.007812 -234.597656 122.15625 -257.171875 C 122.445312 -260.597656 123.019531 -264.953125 123.875 -270.234375 C 124.726562 -275.523438 125.367188 -280.742188 125.796875 -285.890625 C 126.222656 -291.035156 125.582031 -295.035156 123.875 -297.890625 C 122.15625 -301.035156 119.9375 -302.609375 117.21875 -302.609375 C 114.507812 -302.609375 111.65625 -302.175781 108.65625 -301.3125 C 105.65625 -300.457031 102.726562 -299.890625 99.875 -299.609375 C 97.007812 -299.328125 94.148438 -299.328125 91.296875 -299.609375 C 88.441406 -299.890625 85.582031 -300.03125 82.71875 -300.03125 C 79.289062 -300.03125 75.078125 -300.671875 70.078125 -301.953125 C 65.078125 -303.242188 60.21875 -304.242188 55.5 -304.953125 C 50.789062 -305.671875 46.863281 -304.890625 43.71875 -302.609375 C 43.4375 -302.328125 43.148438 -302.039062 42.859375 -301.75 C 42.578125 -301.46875 42.289062 -301.179688 42 -300.890625 Z M 42 -300.890625 "/></g></g><g style="fill:#ffffff;fill-opacity:1;"><g transform="translate(1276.722593, 814.207383)"><path style="stroke:none" d="M 42 -300.890625 C 40 -298.609375 39.210938 -294.535156 39.640625 -288.671875 C 40.078125 -282.816406 40.9375 -276.816406 42.21875 -270.671875 C 43.5 -264.535156 44.140625 -259.75 44.140625 -256.3125 C 44.429688 -247.738281 44.289062 -239.09375 43.71875 -230.375 C 43.144531 -221.664062 42.71875 -212.882812 42.4375 -204.03125 C 42.4375 -190.019531 42.503906 -176.15625 42.640625 -162.4375 C 42.785156 -148.726562 43.003906 -134.875 43.296875 -120.875 C 43.859375 -103.15625 44.210938 -85.363281 44.359375 -67.5 C 44.503906 -49.644531 43.429688 -31.859375 41.140625 -14.140625 C 40.859375 -12.140625 40.644531 -10.140625 40.5 -8.140625 C 40.363281 -6.140625 40.722656 -4.140625 41.578125 -2.140625 C 42.722656 0.710938 44.648438 2.28125 47.359375 2.5625 C 50.078125 2.851562 53.003906 2.640625 56.140625 1.921875 C 59.285156 1.210938 62.003906 0.710938 64.296875 0.421875 C 69.148438 -0.140625 74.078125 -0.207031 79.078125 0.21875 C 84.078125 0.644531 88.863281 1.144531 93.4375 1.71875 C 96.007812 2 99.296875 2.425781 103.296875 3 C 107.296875 3.570312 111.222656 3.644531 115.078125 3.21875 C 118.941406 2.789062 121.726562 1.144531 123.4375 -1.71875 C 124.875 -4.289062 125.234375 -7.359375 124.515625 -10.921875 C 123.796875 -14.492188 123.296875 -17.566406 123.015625 -20.140625 C 122.441406 -25.578125 122.226562 -31.222656 122.375 -37.078125 C 122.519531 -42.929688 122.59375 -48.570312 122.59375 -54 L 121.296875 -121.734375 C 121.015625 -144.304688 120.800781 -166.878906 120.65625 -189.453125 C 120.507812 -212.023438 121.007812 -234.597656 122.15625 -257.171875 C 122.445312 -260.597656 123.019531 -264.953125 123.875 -270.234375 C 124.726562 -275.523438 125.367188 -280.742188 125.796875 -285.890625 C 126.222656 -291.035156 125.582031 -295.035156 123.875 -297.890625 C 122.15625 -301.035156 119.9375 -302.609375 117.21875 -302.609375 C 114.507812 -302.609375 111.65625 -302.175781 108.65625 -301.3125 C 105.65625 -300.457031 102.726562 -299.890625 99.875 -299.609375 C 97.007812 -299.328125 94.148438 -299.328125 91.296875 -299.609375 C 88.441406 -299.890625 85.582031 -300.03125 82.71875 -300.03125 C 79.289062 -300.03125 75.078125 -300.671875 70.078125 -301.953125 C 65.078125 -303.242188 60.21875 -304.242188 55.5 -304.953125 C 50.789062 -305.671875 46.863281 -304.890625 43.71875 -302.609375 C 43.4375 -302.328125 43.148438 -302.039062 42.859375 -301.75 C 42.578125 -301.46875 42.289062 -301.179688 42 -300.890625 Z M 42 -300.890625 "/></g></g></g></svg>